# Blender 3.6.2
# www.blender.org
mtllib leg1.mtl
o leg1
v 0.128091 -0.068368 0.055208
v 0.128091 0.091510 0.055208
v 0.004143 0.091510 -0.045775
v 0.088801 -0.097627 0.023198
v 0.085593 -0.082182 0.020583
v 0.012909 0.080203 -0.038634
v 0.119325 0.080203 0.048066
v 0.119325 -0.057061 0.048066
v 0.006744 -0.013550 -0.070839
v 0.006744 0.036692 -0.070839
v 0.026220 0.080203 -0.054972
v 0.059953 0.105324 -0.027489
v 0.098904 0.105324 0.004245
v 0.132636 0.080203 0.031728
v 0.152112 0.036692 0.047595
v 0.152112 -0.013550 0.047595
v 0.132636 -0.057061 0.031728
v 0.098904 -0.082182 0.004245
v 0.059953 -0.082182 -0.027489
v 0.026220 -0.057061 -0.054972
v 0.034928 -0.007713 -0.070946
v 0.034928 0.030855 -0.070946
v 0.049879 0.064257 -0.058765
v 0.075774 0.083541 -0.037668
v 0.105675 0.083541 -0.013307
v 0.131571 0.064257 0.007790
v 0.146521 0.030855 0.019971
v 0.146521 -0.007713 0.019971
v 0.131571 -0.041115 0.007790
v 0.105675 -0.060399 -0.013307
v 0.075774 -0.060399 -0.037668
v 0.049879 -0.041115 -0.058765
v 0.090725 0.011571 -0.025488
v -0.006567 0.036692 -0.054501
v -0.006567 -0.013550 -0.054501
v 0.012909 -0.057061 -0.038634
v 0.046642 -0.082182 -0.011151
v 0.085593 0.105324 0.020583
v 0.046642 0.105324 -0.011151
v 0.138801 -0.013550 0.063933
v 0.138801 0.036692 0.063933
v -0.018541 0.040831 -0.064257
v -0.018541 -0.017688 -0.064257
v 0.004143 -0.068368 -0.045775
v 0.043433 -0.097627 -0.013765
v 0.088801 0.120769 0.023198
v 0.043433 0.120769 -0.013765
v 0.150775 -0.017688 0.073689
v 0.150775 0.040831 0.073689
v 0.171536 -0.230832 0.094283
v 0.047778 -0.435212 -0.006717
v 0.004142 -0.153154 -0.059286
v 0.164328 -0.089127 0.015786
v 0.129180 -0.262889 0.004339
v 0.037106 -0.298534 -0.015240
v 0.166571 -0.026511 0.073048
v 0.205423 -0.125228 0.104702
v 0.055579 -0.122121 -0.017379
v 0.170175 -0.112699 0.020549
v 0.087772 -0.144994 -0.046586
v 0.036453 -0.354380 -0.015944
v 0.112047 -0.344756 -0.000183
v 0.146504 -0.334453 0.073717
v 0.123372 -0.425588 0.009044
v 0.157829 -0.415285 0.082944
v 0.113016 -0.119597 0.054758
v 0.065820 -0.138095 0.016306
v 0.091992 -0.030347 0.037630
v 0.044796 -0.048845 -0.000823
v -0.046518 -0.017688 -0.029918
v 0.072138 -0.068368 0.123886
v 0.072138 0.091510 0.123886
v -0.051810 0.091510 0.022902
v 0.032848 -0.097627 0.091875
v 0.029640 -0.082182 0.089261
v -0.043044 0.080203 0.030044
v 0.063372 0.080203 0.116744
v 0.063372 -0.057061 0.116744
v -0.075831 -0.013550 0.030515
v -0.075831 0.036692 0.030515
v -0.056355 0.080203 0.046382
v -0.022622 0.105324 0.073865
v 0.016329 0.105324 0.105599
v 0.050061 0.080203 0.133082
v 0.069537 0.036692 0.148949
v 0.069537 -0.013550 0.148949
v 0.050061 -0.057061 0.133082
v 0.016329 -0.082182 0.105599
v -0.022622 -0.082182 0.073865
v -0.056355 -0.057061 0.046382
v -0.070240 -0.007713 0.058139
v -0.070240 0.030855 0.058139
v -0.055290 0.064257 0.070320
v -0.029394 0.083541 0.091417
v 0.000507 0.083541 0.115778
v 0.026402 0.064257 0.136876
v 0.041353 0.030855 0.149056
v 0.041353 -0.007713 0.149056
v 0.026402 -0.041115 0.136876
v 0.000507 -0.060399 0.115778
v -0.029394 -0.060399 0.091417
v -0.055290 -0.041115 0.070320
v -0.014444 0.011571 0.103598
v -0.062520 0.036692 0.014177
v -0.062520 -0.013550 0.014177
v -0.043044 -0.057061 0.030044
v -0.009312 -0.082182 0.057527
v 0.029640 0.105324 0.089261
v -0.009312 0.105324 0.057527
v 0.082848 -0.013550 0.132611
v 0.082848 0.036692 0.132611
v -0.046518 0.040831 -0.029918
v -0.023834 0.091510 -0.011437
v 0.015457 0.120769 0.020574
v 0.060825 0.120769 0.057536
v 0.100115 0.091510 0.089547
v 0.122799 0.040831 0.108028
v 0.122799 -0.017688 0.108028
v 0.100115 -0.068368 0.089547
v 0.060825 -0.097627 0.057536
v 0.015457 -0.097627 0.020574
v -0.023833 -0.068368 -0.011437
v -0.074494 0.040831 0.004421
v -0.074494 -0.017688 0.004421
v -0.051810 -0.068368 0.022902
v -0.012520 -0.097627 0.054913
v 0.032848 0.120769 0.091875
v -0.012520 0.120769 0.054913
v 0.094822 -0.017688 0.142367
v 0.094822 0.040831 0.142367
v 0.119187 -0.230832 0.158538
v -0.004740 -0.435212 0.057744
v -0.065043 -0.153154 0.025631
v 0.146065 -0.412660 0.126984
v 0.040852 -0.089127 0.167342
v 0.000800 -0.438964 0.008633
v -0.010525 -0.358132 -0.000594
v 0.022539 -0.262889 0.135232
v -0.015244 -0.298534 0.049014
v 0.097386 -0.026511 0.157966
v 0.136238 -0.125228 0.189619
v -0.013605 -0.122121 0.067538
v 0.046699 -0.112699 0.172105
v -0.035704 -0.144994 0.104970
v -0.053606 -0.140015 -0.035693
v 0.102590 -0.089127 0.091564
v 0.134740 -0.331828 0.117757
v 0.163068 -0.231795 0.140836
v 0.132639 -0.003668 0.116045
v 0.188490 -0.123309 0.161548
v 0.020987 -0.122121 0.025080
v -0.016065 -0.354380 0.048517
v -0.014378 -0.301017 -0.003733
v 0.014647 -0.344756 0.119366
v 0.026034 -0.144994 0.029192
v 0.093986 -0.334453 0.138178
v 0.108437 -0.112699 0.096327
v 0.025973 -0.425588 0.128593
v 0.105311 -0.415285 0.147405
v 0.043637 -0.138095 0.043533
v 0.090834 -0.119597 0.081985
v 0.068651 -0.119597 0.109213
v 0.021454 -0.138095 0.070760
v 0.022613 -0.048845 0.026404
v 0.069810 -0.030347 0.064857
v 0.047627 -0.030347 0.092084
v 0.000430 -0.048845 0.053632
vn 0.5482 0.7071 0.4466
vn 0.7489 0.2588 0.6101
vn 0.7489 -0.2588 0.6101
vn 0.5482 -0.7071 0.4466
vn 0.2007 0.9659 0.1635
vn -0.5482 0.7071 -0.4466
vn -0.2007 0.9659 -0.1635
vn -0.7489 -0.2588 -0.6101
vn -0.7489 0.2588 -0.6101
vn -0.2007 -0.9659 -0.1635
vn -0.5482 -0.7071 -0.4466
vn 0.6316 -0.0000 -0.7753
vn 0.9602 0.1608 -0.2283
vn 0.9602 -0.1608 -0.2283
vn 0.3702 0.6002 -0.7090
vn 0.6196 0.6002 -0.5058
vn 0.1542 -0.4394 -0.8850
vn 0.3702 -0.6002 -0.7090
vn 0.0296 -0.1608 -0.9865
vn 0.0296 0.1608 -0.9865
vn 0.8355 -0.4394 -0.3299
vn 0.8355 0.4394 -0.3299
vn 0.1542 0.4394 -0.8850
vn 0.6196 -0.6002 -0.5058
vn 0.2007 -0.9659 0.1635
vn 0.0251 -0.2187 -0.9755
vn 0.3848 -0.2104 -0.8987
vn 0.6634 -0.1951 -0.7224
vn 0.9825 -0.0677 -0.1735
vn 0.6651 -0.0526 -0.7449
vn 0.0203 -0.1034 -0.9944
vn -0.7629 -0.1778 -0.6216
vn -0.7603 -0.1324 -0.6359
vn 0.9149 0.2372 -0.3266
vn 0.8997 0.4256 0.0967
vn 0.9925 -0.0150 -0.1211
vn 0.7457 0.2738 0.6075
vn -0.7496 -0.1459 -0.6457
vn -0.0555 -0.2765 -0.9594
vn 0.0155 -0.1113 -0.9937
vn 0.9385 -0.2835 -0.1973
vn 0.7590 -0.0796 0.6462
vn 0.8336 -0.1661 -0.5267
vn 0.2254 -0.9568 0.1836
vn 0.0145 0.7949 -0.6065
vn -0.0415 0.9100 -0.4126
vn -0.1909 0.9033 -0.3843
vn 0.7999 0.0990 0.5919
vn 0.9734 0.1137 -0.1987
vn -0.7384 -0.3047 -0.6016
vn 0.7293 -0.3391 0.5942
vn -0.2537 0.9449 -0.2067
vn -0.6819 0.4758 -0.5556
vn -0.6326 0.4627 -0.6211
vn -0.6632 0.5179 -0.5403
vn 0.6315 -0.0000 -0.7753
vn 0.7418 0.2907 0.6043
vn -0.7418 -0.2907 -0.6043
vn -0.6316 -0.0000 0.7753
vn -0.0296 0.1608 0.9865
vn -0.0296 -0.1608 0.9865
vn -0.6196 0.6002 0.5058
vn -0.3702 0.6002 0.7090
vn -0.6196 -0.6002 0.5058
vn -0.8355 -0.4394 0.3299
vn -0.9602 -0.1608 0.2283
vn -0.9602 0.1608 0.2283
vn -0.1542 -0.4394 0.8850
vn -0.1542 0.4394 0.8850
vn -0.8355 0.4394 0.3299
vn -0.3702 -0.6002 0.7090
vn -0.8024 -0.2104 0.5584
vn -0.9421 -0.2081 0.2630
vn -0.5735 -0.1949 0.7957
vn 0.0287 -0.0678 0.9973
vn -0.0028 -0.2432 0.9700
vn -0.9710 -0.0631 0.2305
vn -0.1349 0.2372 0.9621
vn 0.0819 -0.0148 0.9965
vn 0.2765 0.4255 0.8617
vn -0.9508 -0.2765 0.1396
vn -0.7396 -0.2998 -0.6026
vn -0.6412 0.0607 0.7650
vn -0.9700 -0.1113 0.2160
vn -0.3474 -0.1661 0.9229
vn -0.5911 0.7949 0.1368
vn -0.4150 0.9033 -0.1093
vn -0.4124 0.9100 0.0427
vn 0.6642 0.5158 0.5411
vn 0.0021 0.1137 0.9935
vn -0.1418 0.9831 -0.1155
vn -0.7361 0.4627 -0.4940
vn -0.6317 -0.0000 0.7752
vn 0.7629 0.1778 0.6216
vn -0.7060 0.4130 -0.5752
vt 0.983404 0.808128
vt 0.979146 0.797978
vt 0.983404 0.797978
vt 0.983404 0.787828
vt 0.979146 0.777678
vt 0.983404 0.777678
vt 0.983404 0.818277
vt 0.979146 0.808128
vt 0.983404 0.838577
vt 0.979146 0.828427
vt 0.983404 0.828427
vt 0.983404 0.858877
vt 0.979146 0.848727
vt 0.983404 0.848727
vt 0.979146 0.787828
vt 0.983404 0.879177
vt 0.979146 0.869027
vt 0.983404 0.869027
vt 0.979146 0.858877
vt 0.929284 0.268503
vt 0.921330 0.276699
vt 0.920494 0.273578
vt 0.896479 0.249564
vt 0.893359 0.260550
vt 0.893359 0.248728
vt 0.920494 0.235699
vt 0.931568 0.238489
vt 0.929284 0.240773
vt 0.934359 0.249564
vt 0.937479 0.260550
vt 0.934359 0.259713
vt 0.901554 0.240774
vt 0.909508 0.232578
vt 0.910344 0.235699
vt 0.910344 0.273579
vt 0.909508 0.276699
vt 0.921330 0.232578
vt 0.931568 0.270788
vt 0.901554 0.268504
vt 0.896479 0.259714
vt 0.937479 0.248727
vt 0.899270 0.238489
vt 0.899270 0.270788
vt 0.432751 0.917607
vt 0.437856 0.927249
vt 0.431273 0.923382
vt 0.407309 0.932064
vt 0.416952 0.927019
vt 0.413178 0.933672
vt 0.432704 0.957676
vt 0.437721 0.948129
vt 0.442013 0.952300
vt 0.421946 0.957678
vt 0.416811 0.947992
vt 0.423418 0.951867
vt 0.447382 0.932262
vt 0.442022 0.922972
vt 0.412808 0.922814
vt 0.423637 0.923306
vt 0.431073 0.951914
vt 0.412620 0.952290
vt 0.413043 0.941322
vt 0.447382 0.942997
vt 0.441632 0.933888
vt 0.422062 0.917575
vt 0.407237 0.942931
vt 0.441584 0.941530
vt 0.427347 0.937607
vt 0.979146 0.838577
vt 0.979146 0.767528
vt 0.983404 0.767528
vt 0.979146 0.818277
vt 0.979146 0.757378
vt 0.983404 0.757378
vt 0.485212 0.946063
vt 0.494160 0.934241
vt 0.494160 0.946063
vt 0.485212 0.898775
vt 0.494160 0.910597
vt 0.485212 0.910597
vt 0.485212 0.839665
vt 0.494160 0.851487
vt 0.485212 0.851487
vt 0.485212 0.863309
vt 0.494160 0.875131
vt 0.485212 0.875131
vt 0.494160 0.957885
vt 0.485212 0.957885
vt 0.494160 0.922419
vt 0.485212 0.922419
vt 0.494160 0.863309
vt 0.494160 0.886953
vt 0.485212 0.886953
vt 0.494160 0.969707
vt 0.485212 0.969707
vt 0.485212 0.934241
vt 0.494160 0.898775
vt 0.494160 0.981529
vt 0.485212 0.981529
vt 0.659994 0.843850
vt 0.667422 0.813646
vt 0.679537 0.836970
vt 0.695806 0.853371
vt 0.675629 0.853908
vt 0.659113 0.854628
vt 0.648526 0.871005
vt 0.649453 0.854556
vt 0.684427 0.801387
vt 0.698348 0.789269
vt 0.701393 0.810922
vt 0.564927 0.935973
vt 0.575974 0.940815
vt 0.556228 0.940747
vt 0.649951 0.844356
vt 0.652266 0.815474
vt 0.658764 0.871005
vt 0.700151 0.831218
vt 0.710042 0.854137
vt 0.686133 0.807356
vt 0.575897 0.963257
vt 0.568819 0.958439
vt 0.556151 0.963189
vt 0.878440 0.531579
vt 0.887741 0.517149
vt 0.888356 0.531933
vt 0.710043 0.811050
vt 0.691726 0.871005
vt 0.556133 0.968189
vt 0.575880 0.968257
vt 0.710042 0.833126
vt 0.899411 0.531473
vt 0.564765 0.983006
vt 0.674715 0.871005
vt 0.963318 0.944574
vt 0.956223 0.963418
vt 0.956223 0.944574
vt 0.568863 0.945585
vt 0.575958 0.945609
vt 0.983267 0.944574
vt 0.976172 0.963418
vt 0.976172 0.944574
vt 0.963318 0.963418
vt 0.494160 0.839665
vt 0.575991 0.936011
vt 0.640659 0.815047
vt 0.710043 0.783084
vt 0.899411 0.511702
vt 0.979146 0.879177
vt 0.575913 0.958463
vt 0.710042 0.871005
vt 0.575991 0.987214
vt 0.983267 0.963418
s 1
usemtl Material
f 14/1/1 41/2/2 15/3/2
f 16/4/3 8/5/4 17/6/4
f 13/7/5 7/8/1 14/1/1
f 11/9/6 39/10/7 12/11/7
f 9/12/8 34/13/9 10/14/9
f 16/4/3 41/2/2 40/15/3
f 19/16/10 36/17/11 20/18/11
f 9/12/8 36/17/11 35/19/8
f 36/20/12 43/21/12 35/22/12
f 38/23/12 47/24/12 46/25/12
f 40/26/12 1/27/12 8/28/12
f 5/29/12 45/30/12 37/31/12
f 7/32/12 49/33/12 41/34/12
f 34/35/12 43/21/12 42/36/12
f 41/34/12 48/37/12 40/26/12
f 36/20/12 45/30/12 44/38/12
f 6/39/12 47/24/12 39/40/12
f 8/28/12 4/41/12 5/29/12
f 38/23/12 2/42/12 7/32/12
f 6/39/12 42/36/12 3/43/12
f 15/44/13 28/45/14 27/46/13
f 12/47/15 25/48/16 24/49/15
f 20/50/17 31/51/18 19/52/18
f 9/53/19 22/54/20 21/55/19
f 17/56/21 28/45/14 16/57/14
f 13/58/16 26/59/22 25/48/16
f 9/53/19 32/60/17 20/50/17
f 10/61/20 23/62/23 22/54/20
f 18/63/24 29/64/21 17/56/21
f 15/44/13 26/59/22 14/65/22
f 12/47/15 23/62/23 11/66/23
f 19/52/18 30/67/24 18/63/24
f 25/48/12 26/59/12 33/68/12
f 32/60/12 21/55/12 33/68/12
f 22/54/12 23/62/12 33/68/12
f 29/64/12 30/67/12 33/68/12
f 26/59/12 27/46/12 33/68/12
f 23/62/12 24/49/12 33/68/12
f 30/67/12 31/51/12 33/68/12
f 27/46/12 28/45/12 33/68/12
f 24/49/12 25/48/12 33/68/12
f 31/51/12 32/60/12 33/68/12
f 21/55/12 22/54/12 33/68/12
f 28/45/12 29/64/12 33/68/12
f 10/14/9 6/69/6 11/9/6
f 17/6/4 5/70/25 18/71/25
f 12/11/7 38/72/5 13/7/5
f 18/71/25 37/73/10 19/74/10
f 48/75/3 117/76/2 118/77/3
f 47/78/7 115/79/5 46/80/5
f 45/81/10 122/82/11 44/83/11
f 43/84/8 112/85/9 42/86/9
f 48/75/3 119/87/4 1/88/4
f 46/80/5 116/89/1 2/90/1
f 43/84/8 122/82/11 70/91/8
f 42/86/9 113/92/6 3/93/6
f 1/88/4 120/94/25 4/95/25
f 2/90/1 117/76/2 49/96/2
f 3/93/6 114/97/7 47/78/7
f 4/95/25 121/98/10 45/99/10
f 55/100/26 60/101/27 54/102/28
f 54/102/28 63/103/29 62/104/30
f 61/105/31 136/106/32 137/107/33
f 53/108/34 56/109/35 57/110/36
f 58/111/37 155/112/37 60/113/37
f 153/114/38 52/115/39 55/100/26
f 55/100/26 62/104/30 61/105/31
f 62/104/30 51/116/40 61/105/31
f 50/117/41 147/118/42 63/103/29
f 54/102/28 60/101/27 59/119/43
f 157/120/44 66/121/44 59/122/44
f 59/119/43 50/117/41 54/102/28
f 57/110/36 59/119/43 53/108/34
f 60/123/45 52/124/46 58/125/47
f 56/109/35 150/126/48 57/110/36
f 147/118/42 65/127/49 63/103/29
f 53/128/50 157/120/50 146/129/50
f 153/114/38 61/105/31 137/107/33
f 57/110/36 148/130/51 50/117/41
f 52/124/46 151/131/52 58/125/47
f 146/129/53 56/132/54 53/128/55
f 63/103/29 64/133/56 62/104/30
f 67/134/57 164/135/57 160/136/57
f 155/112/44 67/137/44 160/138/44
f 59/122/44 67/137/44 60/113/44
f 161/139/58 68/140/58 66/141/58
f 67/134/59 68/140/59 69/142/59
f 111/2/2 84/1/1 85/3/2
f 78/5/4 86/4/3 87/6/4
f 77/8/1 83/7/5 84/1/1
f 109/10/7 81/9/6 82/11/7
f 104/13/9 79/12/8 80/14/9
f 86/4/3 111/2/2 85/3/2
f 106/17/11 89/16/10 90/18/11
f 105/19/8 90/18/11 79/12/8
f 124/21/59 106/20/59 105/22/59
f 108/23/59 128/24/59 109/40/59
f 71/27/59 110/26/59 78/28/59
f 126/30/59 75/29/59 107/31/59
f 130/33/59 77/32/59 111/34/59
f 104/35/59 124/21/59 105/22/59
f 129/37/59 111/34/59 110/26/59
f 125/38/59 107/31/59 106/20/59
f 128/24/59 76/39/59 109/40/59
f 74/41/59 78/28/59 75/29/59
f 72/42/59 108/23/59 77/32/59
f 76/39/59 123/36/59 104/35/59
f 97/46/60 86/57/61 85/44/60
f 82/47/62 95/48/63 83/58/63
f 101/51/64 90/50/65 89/52/64
f 79/53/66 92/54/67 80/61/67
f 98/45/61 87/56/68 86/57/61
f 83/58/63 96/59/69 84/65/69
f 102/60/65 79/53/66 90/50/65
f 80/61/67 93/62/70 81/66/70
f 99/64/68 88/63/71 87/56/68
f 96/59/69 85/44/60 84/65/69
f 93/62/70 82/47/62 81/66/70
f 100/67/71 89/52/64 88/63/71
f 95/48/59 103/68/59 96/59/59
f 102/60/59 103/68/59 91/55/59
f 92/54/59 103/68/59 93/62/59
f 99/64/59 103/68/59 100/67/59
f 96/59/59 103/68/59 97/46/59
f 93/62/59 103/68/59 94/49/59
f 100/67/59 103/68/59 101/51/59
f 97/46/59 103/68/59 98/45/59
f 94/49/59 103/68/59 95/48/59
f 101/51/59 103/68/59 102/60/59
f 91/55/59 103/68/59 92/54/59
f 98/45/59 103/68/59 99/64/59
f 76/69/6 80/14/9 81/9/6
f 75/70/25 87/6/4 88/71/25
f 108/72/5 82/11/7 83/7/5
f 107/73/10 88/71/25 89/74/10
f 129/75/3 117/76/2 130/96/2
f 115/79/5 128/78/7 127/80/5
f 125/83/11 121/143/10 126/81/10
f 112/85/9 124/84/8 123/86/9
f 119/87/4 129/75/3 71/88/4
f 116/89/1 127/80/5 72/90/1
f 124/84/8 122/82/11 125/83/11
f 113/92/6 123/86/9 73/93/6
f 120/94/25 71/88/4 74/95/25
f 117/76/2 72/90/1 130/96/2
f 114/97/7 73/93/6 128/78/7
f 121/98/10 74/95/25 126/99/10
f 144/101/72 139/100/73 138/102/74
f 138/102/74 156/103/75 131/117/76
f 136/106/32 152/105/77 137/107/33
f 135/108/78 141/110/79 140/109/80
f 142/111/37 155/112/37 151/144/37
f 153/114/38 133/115/81 145/145/82
f 139/100/73 154/104/83 138/102/74
f 132/116/84 154/104/83 152/105/77
f 131/117/76 147/118/42 148/130/51
f 138/102/74 143/119/85 144/101/72
f 162/121/44 157/120/44 143/122/44
f 131/117/76 143/119/85 138/102/74
f 141/110/79 135/108/78 143/119/85
f 144/123/86 142/125/87 133/124/88
f 140/109/80 150/126/48 149/146/89
f 159/127/90 147/118/42 156/103/75
f 157/120/50 135/128/50 146/129/50
f 153/114/38 152/105/77 139/100/73
f 148/130/51 141/110/79 131/117/76
f 133/124/88 151/131/52 145/147/91
f 140/132/92 146/129/53 135/128/55
f 158/133/93 156/103/75 154/104/83
f 164/135/57 163/134/57 160/136/57
f 155/112/44 163/137/44 144/113/44
f 144/113/44 162/121/44 143/122/44
f 166/140/58 161/139/58 162/141/58
f 163/134/12 166/140/12 162/141/12
f 14/1/1 7/8/1 41/2/2
f 16/4/3 40/15/3 8/5/4
f 13/7/5 38/72/5 7/8/1
f 11/9/6 6/69/6 39/10/7
f 9/12/8 35/19/8 34/13/9
f 16/4/3 15/3/2 41/2/2
f 19/16/10 37/148/10 36/17/11
f 9/12/8 20/18/11 36/17/11
f 36/20/12 44/38/12 43/21/12
f 38/23/12 39/40/12 47/24/12
f 40/26/12 48/37/12 1/27/12
f 5/29/12 4/41/12 45/30/12
f 7/32/12 2/42/12 49/33/12
f 34/35/12 35/22/12 43/21/12
f 41/34/12 49/33/12 48/37/12
f 36/20/12 37/31/12 45/30/12
f 6/39/12 3/43/12 47/24/12
f 8/28/12 1/27/12 4/41/12
f 38/23/12 46/25/12 2/42/12
f 6/39/12 34/35/12 42/36/12
f 15/44/13 16/57/14 28/45/14
f 12/47/15 13/58/16 25/48/16
f 20/50/17 32/60/17 31/51/18
f 9/53/19 10/61/20 22/54/20
f 17/56/21 29/64/21 28/45/14
f 13/58/16 14/65/22 26/59/22
f 9/53/19 21/55/19 32/60/17
f 10/61/20 11/66/23 23/62/23
f 18/63/24 30/67/24 29/64/21
f 15/44/13 27/46/13 26/59/22
f 12/47/15 24/49/15 23/62/23
f 19/52/18 31/51/18 30/67/24
f 10/14/9 34/13/9 6/69/6
f 17/6/4 8/5/4 5/70/25
f 12/11/7 39/10/7 38/72/5
f 18/71/25 5/70/25 37/73/10
f 48/75/3 49/96/2 117/76/2
f 47/78/7 114/97/7 115/79/5
f 45/81/10 121/143/10 122/82/11
f 43/84/8 70/91/8 112/85/9
f 48/75/3 118/77/3 119/87/4
f 46/80/5 115/79/5 116/89/1
f 43/84/8 44/83/11 122/82/11
f 42/86/9 112/85/9 113/92/6
f 1/88/4 119/87/4 120/94/25
f 2/90/1 116/89/1 117/76/2
f 3/93/6 113/92/6 114/97/7
f 4/95/25 120/94/25 121/98/10
f 55/100/26 52/115/39 60/101/27
f 54/102/28 50/117/41 63/103/29
f 61/105/31 51/116/40 136/106/32
f 58/111/37 151/144/37 155/112/37
f 153/114/38 145/145/82 52/115/39
f 55/100/26 54/102/28 62/104/30
f 62/104/30 64/133/56 51/116/40
f 50/117/41 148/130/51 147/118/42
f 157/120/44 161/149/44 66/121/44
f 59/119/43 57/110/36 50/117/41
f 56/109/35 149/146/89 150/126/48
f 147/118/42 134/150/94 65/127/49
f 53/128/50 59/122/50 157/120/50
f 153/114/38 55/100/26 61/105/31
f 57/110/36 150/126/48 148/130/51
f 52/124/46 145/147/91 151/131/52
f 146/129/53 149/151/95 56/132/54
f 63/103/29 65/127/49 64/133/56
f 67/134/57 69/142/57 164/135/57
f 155/112/44 60/113/44 67/137/44
f 59/122/44 66/121/44 67/137/44
f 161/139/58 165/152/58 68/140/58
f 67/134/59 66/141/59 68/140/59
f 111/2/2 77/8/1 84/1/1
f 78/5/4 110/15/3 86/4/3
f 77/8/1 108/72/5 83/7/5
f 109/10/7 76/69/6 81/9/6
f 104/13/9 105/19/8 79/12/8
f 86/4/3 110/15/3 111/2/2
f 106/17/11 107/148/10 89/16/10
f 105/19/8 106/17/11 90/18/11
f 124/21/59 125/38/59 106/20/59
f 108/23/59 127/25/59 128/24/59
f 71/27/59 129/37/59 110/26/59
f 126/30/59 74/41/59 75/29/59
f 130/33/59 72/42/59 77/32/59
f 104/35/59 123/36/59 124/21/59
f 129/37/59 130/33/59 111/34/59
f 125/38/59 126/30/59 107/31/59
f 128/24/59 73/43/59 76/39/59
f 74/41/59 71/27/59 78/28/59
f 72/42/59 127/25/59 108/23/59
f 76/39/59 73/43/59 123/36/59
f 97/46/60 98/45/61 86/57/61
f 82/47/62 94/49/62 95/48/63
f 101/51/64 102/60/65 90/50/65
f 79/53/66 91/55/66 92/54/67
f 98/45/61 99/64/68 87/56/68
f 83/58/63 95/48/63 96/59/69
f 102/60/65 91/55/66 79/53/66
f 80/61/67 92/54/67 93/62/70
f 99/64/68 100/67/71 88/63/71
f 96/59/69 97/46/60 85/44/60
f 93/62/70 94/49/62 82/47/62
f 100/67/71 101/51/64 89/52/64
f 76/69/6 104/13/9 80/14/9
f 75/70/25 78/5/4 87/6/4
f 108/72/5 109/10/7 82/11/7
f 107/73/10 75/70/25 88/71/25
f 129/75/3 118/77/3 117/76/2
f 115/79/5 114/97/7 128/78/7
f 125/83/11 122/82/11 121/143/10
f 112/85/9 70/91/8 124/84/8
f 119/87/4 118/77/3 129/75/3
f 116/89/1 115/79/5 127/80/5
f 124/84/8 70/91/8 122/82/11
f 113/92/6 112/85/9 123/86/9
f 120/94/25 119/87/4 71/88/4
f 117/76/2 116/89/1 72/90/1
f 114/97/7 113/92/6 73/93/6
f 121/98/10 120/94/25 74/95/25
f 144/101/72 133/115/81 139/100/73
f 138/102/74 154/104/83 156/103/75
f 136/106/32 132/116/84 152/105/77
f 142/111/37 144/113/37 155/112/37
f 153/114/38 139/100/73 133/115/81
f 139/100/73 152/105/77 154/104/83
f 132/116/84 158/133/93 154/104/83
f 131/117/76 156/103/75 147/118/42
f 162/121/44 161/149/44 157/120/44
f 131/117/76 141/110/79 143/119/85
f 140/109/80 141/110/79 150/126/48
f 159/127/90 134/150/94 147/118/42
f 157/120/50 143/122/50 135/128/50
f 153/114/38 137/107/33 152/105/77
f 148/130/51 150/126/48 141/110/79
f 133/124/88 142/125/87 151/131/52
f 140/132/92 149/151/95 146/129/53
f 158/133/93 159/127/90 156/103/75
f 164/135/57 167/142/57 163/134/57
f 155/112/44 160/138/44 163/137/44
f 144/113/44 163/137/44 162/121/44
f 166/140/58 165/152/58 161/139/58
f 163/134/12 167/142/12 166/140/12
